<svg xmlns="http://www.w3.org/2000/svg" viewBox="0 0 32 32"><defs><style>.a{fill:#fff;fill-rule:evenodd;}</style></defs><title>icon-youtube</title><path class="a" d="M25.69,10.63A2.13,2.13,0,0,0,24,9.29,74.48,74.48,0,0,0,16,9a74.48,74.48,0,0,0-8,.32,2.13,2.13,0,0,0-1.65,1.34c-0.19.46-.77,0.92-0.77,5.37,0,3.7.59,4.91,0.77,5.37A2.13,2.13,0,0,0,8,22.71,74.48,74.48,0,0,0,16,23a74.48,74.48,0,0,0,8-.32,2.13,2.13,0,0,0,1.65-1.34c0.19-.46.77-0.92,0.77-5.37C26.47,12.3,25.88,11.09,25.69,10.63Zm-12,9v-7.3l6,3.65Z"/></svg>