<svg xmlns="http://www.w3.org/2000/svg" viewBox="0 0 32 32"><defs><style>.a{fill:#fff;}</style></defs><title>icon-twitter</title><path class="a" d="M25.1,10.35a7.45,7.45,0,0,1-2.14.59A3.75,3.75,0,0,0,24.6,8.87a7.47,7.47,0,0,1-2.37.91,3.74,3.74,0,0,0-6.36,3.41,10.6,10.6,0,0,1-7.7-3.9,3.74,3.74,0,0,0,1.16,5,3.73,3.73,0,0,1-1.69-.47s0,0,0,0a3.74,3.74,0,0,0,3,3.66,3.75,3.75,0,0,1-1,.13,3.7,3.7,0,0,1-.7-0.07,3.74,3.74,0,0,0,3.49,2.59,7.49,7.49,0,0,1-4.64,1.6,7.7,7.7,0,0,1-.89-0.05,10.62,10.62,0,0,0,16.35-8.95c0-.16,0-0.32,0-0.48A7.56,7.56,0,0,0,25.1,10.35Z"/></svg>