<?xml version="1.0" encoding="utf-8"?>
<!-- Generator: Adobe Illustrator 24.2.3, SVG Export Plug-In . SVG Version: 6.00 Build 0)  -->
<svg version="1.1" id="Layer_1" xmlns="http://www.w3.org/2000/svg" xmlns:xlink="http://www.w3.org/1999/xlink" x="0px" y="0px"
	 viewBox="0 0 32 32" style="enable-background:new 0 0 32 32;" xml:space="preserve">
<style type="text/css">
	.st0{fill:#FFFFFF;}
</style>
<path class="st0" d="M10.1,8.4c-1.1,0-1.8,0.8-1.8,1.7c0,1,0.7,1.7,1.8,1.7l0,0c1.1,0,1.8-0.8,1.8-1.7C11.8,9.2,11.2,8.4,10.1,8.4z
	 M8.6,23.4h3V13.3h-3V23.4z M19.9,13.1c-1.8,0-2.6,1-3,1.7l0,0l0,0l0,0v-1.4h-3.2c0,0.9,0,10.1,0,10.1h3.1v-5.6c0-0.3,0-0.6,0.1-0.8
	c0.2-0.6,0.9-1.2,1.8-1.2c1.2,0,1.9,0.9,1.9,2.3v5.4h3.1v-5.8C23.7,14.5,22.1,13.1,19.9,13.1z"/>
</svg>
