<svg xmlns="http://www.w3.org/2000/svg" viewBox="0 0 183.67 87.17"><defs><style>.cls-1{isolation:isolate;}.cls-14,.cls-2,.cls-9{fill:#fff;}.cls-3{fill:#93c44d;}.cls-4{fill:#6fba52;}.cls-5{fill:#b7cf46;}.cls-6{fill:#3c271b;}.cls-7{fill:#54372a;}.cls-11,.cls-8{fill:#d1d3d4;}.cls-10,.cls-22,.cls-8{mix-blend-mode:multiply;}.cls-9{opacity:0.05;}.cls-12{fill:#efac3b;}.cls-13{fill:#d08b32;}.cls-14,.cls-25{opacity:0.2;}.cls-15{fill:#555859;}.cls-16{fill:#648a97;}.cls-17,.cls-22,.cls-23{fill:none;stroke:#d1d3d4;}.cls-17,.cls-22,.cls-23,.cls-24{stroke-miterlimit:10;}.cls-17,.cls-24{stroke-width:0.53px;}.cls-18{fill:#2d1a0d;}.cls-19{fill:#62b28c;}.cls-20{fill:#4b9272;}.cls-21{fill:#754c29;}.cls-22,.cls-23{stroke-width:1.06px;}.cls-24{fill:#fec128;stroke:#f8992a;}</style></defs><title>houses-b</title><g class="cls-1"><g id="Layer_2" data-name="Layer 2"><g id="Capa_1" data-name="Capa 1"><rect class="cls-2" x="9.03" y="30.22" width="75.39" height="56.95"/><path class="cls-3" d="M24.67,87.17a3.24,3.24,0,0,0-4.13-4.66A3.24,3.24,0,0,0,15.67,79h0a3.24,3.24,0,0,0-6.46-.37,3.21,3.21,0,0,0-1.43-.34,3.24,3.24,0,0,0-3,4.45A4,4,0,0,0,2,87.17Z"/><path class="cls-4" d="M11.17,87.17a3.24,3.24,0,0,1,4.13-4.66A3.24,3.24,0,0,1,20.17,79h0a3.24,3.24,0,0,1,6.46-.37,3.24,3.24,0,0,1,4.44,4.11,4,4,0,0,1,2.8,3.81,4,4,0,0,1-.06.67Z"/><path class="cls-5" d="M6.88,87.17A2.18,2.18,0,0,1,9.65,84a2.15,2.15,0,0,1-.07-.54,2.18,2.18,0,0,1,3.34-1.84h0a2.18,2.18,0,0,1,4.34-.25,2.18,2.18,0,0,1,3,2.77,2.68,2.68,0,0,1,1.84,3Z"/><path class="cls-3" d="M79.32,87.17a3.24,3.24,0,0,0-4.12-4.66A3.24,3.24,0,0,0,70.32,79h0a3.24,3.24,0,0,0-6.46-.37,3.24,3.24,0,0,0-4.44,4.11,4,4,0,0,0-2.8,3.81,4,4,0,0,0,.06.67Z"/><path class="cls-4" d="M65.83,87.17A3.24,3.24,0,0,1,70,82.51,3.24,3.24,0,0,1,74.82,79h0a3.24,3.24,0,0,1,6.46-.37,3.24,3.24,0,0,1,4.44,4.11,4,4,0,0,1,2.8,3.81,4,4,0,0,1-.06.67Z"/><path class="cls-5" d="M61.53,87.17A2.18,2.18,0,0,1,64.3,84a2.2,2.2,0,0,1-.07-.54,2.18,2.18,0,0,1,3.34-1.84h0a2.18,2.18,0,0,1,4.34-.25,2.18,2.18,0,0,1,3,2.77,2.68,2.68,0,0,1,1.84,3Z"/><polygon class="cls-6" points="93.46 36.04 0 36.04 46.73 0 93.46 36.04"/><rect class="cls-7" x="38.66" y="60.62" width="16.14" height="26.55"/><rect class="cls-8" x="39.74" y="62.27" width="13.99" height="24.9"/><rect class="cls-7" x="40.38" y="62.89" width="12.7" height="24.28"/><rect class="cls-9" x="41.4" y="64.05" width="4.52" height="6.34"/><rect class="cls-9" x="47.54" y="64.05" width="4.52" height="6.34"/><rect class="cls-9" x="41.4" y="71.86" width="4.52" height="6.34"/><rect class="cls-9" x="47.54" y="71.86" width="4.52" height="6.34"/><rect class="cls-9" x="41.4" y="79.67" width="4.52" height="6.34"/><rect class="cls-9" x="47.54" y="79.67" width="4.52" height="6.34"/><g class="cls-10"><rect class="cls-11" x="41.84" y="64.05" width="4.08" height="0.3"/></g><g class="cls-10"><rect class="cls-11" x="47.98" y="64.05" width="4.08" height="0.3"/></g><g class="cls-10"><rect class="cls-11" x="41.84" y="71.86" width="4.08" height="0.3"/></g><g class="cls-10"><rect class="cls-11" x="47.98" y="71.86" width="4.08" height="0.3"/></g><g class="cls-10"><rect class="cls-11" x="41.84" y="79.67" width="4.08" height="0.3"/></g><g class="cls-10"><rect class="cls-11" x="47.98" y="79.67" width="4.08" height="0.3"/></g><polygon class="cls-9" points="41.84 69.93 41.84 64.05 41.4 64.05 41.4 70.39 45.92 70.39 45.92 69.93 41.84 69.93"/><polygon class="cls-9" points="47.98 69.93 47.98 64.05 47.54 64.05 47.54 70.39 52.06 70.39 52.06 69.93 47.98 69.93"/><polygon class="cls-9" points="41.84 77.74 41.84 71.86 41.4 71.86 41.4 78.2 45.92 78.2 45.92 77.74 41.84 77.74"/><polygon class="cls-9" points="47.98 77.74 47.98 71.86 47.54 71.86 47.54 78.2 52.06 78.2 52.06 77.74 47.98 77.74"/><polygon class="cls-9" points="41.84 85.55 41.84 79.67 41.4 79.67 41.4 86.01 45.92 86.01 45.92 85.55 41.84 85.55"/><polygon class="cls-9" points="47.98 85.55 47.98 79.67 47.54 79.67 47.54 86.01 52.06 86.01 52.06 85.55 47.98 85.55"/><circle class="cls-12" cx="45.67" cy="75.75" r="0.66"/><path class="cls-13" d="M45.78,76.27a.66.66,0,0,1-.56-1,.66.66,0,1,0,1,.83A.66.66,0,0,1,45.78,76.27Z"/><path class="cls-14" d="M46.12,75.5c.14.24.12.51,0,.6s.1-.11-.12-.47-.53-.3-.37-.4S46,75.26,46.12,75.5Z"/><circle class="cls-12" cx="46.07" cy="77.17" r="0.4"/><path class="cls-14" d="M46.07,76.76a.4.4,0,0,0-.28.12.4.4,0,0,1,.25-.09.4.4,0,0,1,.4.4.4.4,0,0,1-.12.29.4.4,0,0,0-.25-.72Z"/><path class="cls-13" d="M46.09,77.54a.4.4,0,0,1-.34-.63.4.4,0,1,0,.65.48A.4.4,0,0,1,46.09,77.54Z"/><circle class="cls-15" cx="46.07" cy="77.04" r="0.1"/><path class="cls-15" d="M46.16,77.39l0-.31c0-.06,0,0-.05,0s-.05,0-.05,0l0,.31Z"/><circle class="cls-12" cx="47.79" cy="75.75" r="0.66"/><path class="cls-13" d="M47.9,76.27a.66.66,0,0,1-.56-1,.66.66,0,1,0,1,.83A.66.66,0,0,1,47.9,76.27Z"/><path class="cls-14" d="M48.24,75.5c.14.24.12.51,0,.6s.1-.11-.12-.47-.53-.3-.37-.4S48.11,75.26,48.24,75.5Z"/><circle class="cls-2" cx="25.17" cy="51.91" r="8.71"/><path class="cls-16" d="M25.17,46.3a5.61,5.61,0,0,0-5.61,5.61H30.78A5.61,5.61,0,0,0,25.17,46.3Z"/><rect class="cls-2" x="16.46" y="51.91" width="17.42" height="15.31"/><rect class="cls-16" x="19.85" y="54.21" width="4.44" height="4.44"/><rect class="cls-16" x="26.04" y="54.21" width="4.44" height="4.44"/><rect class="cls-16" x="19.85" y="59.79" width="4.44" height="4.44"/><rect class="cls-16" x="26.04" y="59.79" width="4.44" height="4.44"/><path class="cls-17" d="M25.17,44.41a7.54,7.54,0,0,0-7.58,7.5v14H32.74v-14A7.54,7.54,0,0,0,25.17,44.41Z"/><circle class="cls-2" cx="70.54" cy="51.91" r="8.71"/><path class="cls-16" d="M70.54,46.3a5.61,5.61,0,0,0-5.61,5.61H76.15A5.61,5.61,0,0,0,70.54,46.3Z"/><rect class="cls-2" x="61.83" y="51.91" width="17.42" height="15.31"/><rect class="cls-16" x="65.23" y="54.21" width="4.44" height="4.44"/><rect class="cls-16" x="71.41" y="54.21" width="4.44" height="4.44"/><rect class="cls-16" x="65.23" y="59.79" width="4.44" height="4.44"/><rect class="cls-16" x="71.41" y="59.79" width="4.44" height="4.44"/><path class="cls-17" d="M70.54,44.41A7.54,7.54,0,0,0,63,51.91v14H78.12v-14A7.54,7.54,0,0,0,70.54,44.41Z"/><polygon class="cls-2" points="57.18 44.47 36.28 44.47 36.28 30 46.73 20.21 57.18 30 57.18 44.47"/><polygon class="cls-18" points="46.73 21.11 57.44 30.41 62.1 30.41 46.73 17.07 31.36 30.41 36.02 30.41 46.73 21.11"/><rect class="cls-2" x="39.29" y="29.87" width="14.89" height="13.09"/><rect class="cls-16" x="42.19" y="32.14" width="3.8" height="3.8"/><rect class="cls-16" x="47.47" y="32.14" width="3.8" height="3.8"/><rect class="cls-16" x="42.19" y="36.9" width="3.8" height="3.8"/><rect class="cls-16" x="47.47" y="36.9" width="3.8" height="3.8"/><rect class="cls-17" x="40.25" y="30.97" width="12.95" height="10.89"/><path class="cls-19" d="M171.78,37.55c-4.5-1.76-7-3.78-11.07-6.41a119,119,0,0,1-10.48-7.42c-1.51-1.23-6.87-2.81-8-4.68h-7.63a83.5,83.5,0,0,1-14.28,10.23c-5,2.93-9.84,6.29-15,9V87.17h68.56V38.8C172.77,38.41,172.89,38,171.78,37.55Z"/><path class="cls-20" d="M160.7,31.13c-1.79-1.16-3.6-2.35-5.37-3.59H123.22q-1.41.88-2.85,1.72c-1.49.87-3,1.78-4.43,2.69H162C161.58,31.68,161.13,31.41,160.7,31.13Z"/><path class="cls-20" d="M163.08,32.56H115c-2.41,1.51-4.81,3-7.28,4.41h62.64C167.14,35.69,166.08,34.26,163.08,32.56Z"/><path class="cls-20" d="M150.23,23.71c-.45-.37-.94-.76-1.43-1.19H130.47c-2,1.56-4.12,3-6.29,4.41h30.28C153,25.89,151.59,24.82,150.23,23.71Z"/><path class="cls-20" d="M171.86,37.58H106.58l-1.22.65V42h68.56V38.8C172.8,38.42,173,38,171.86,37.58Z"/><rect class="cls-20" x="105.36" y="42.6" width="68.56" height="4.41"/><rect class="cls-20" x="105.36" y="47.62" width="68.56" height="4.41"/><rect class="cls-20" x="105.36" y="52.64" width="68.56" height="4.41"/><rect class="cls-20" x="105.36" y="57.66" width="68.56" height="4.41"/><rect class="cls-20" x="105.36" y="62.68" width="68.56" height="4.41"/><rect class="cls-20" x="105.36" y="67.7" width="68.56" height="4.41"/><rect class="cls-20" x="105.36" y="72.72" width="68.56" height="4.41"/><rect class="cls-20" x="105.36" y="77.74" width="68.56" height="4.41"/><rect class="cls-20" x="105.36" y="82.76" width="68.56" height="4.41"/><rect class="cls-21" x="140.31" y="47.69" width="25.93" height="39.48"/><polyline class="cls-22" points="164.56 87.17 164.56 49.38 142 49.38 142 87.17"/><rect class="cls-11" x="154.44" y="51.75" width="5.96" height="5.96"/><rect class="cls-11" x="146.16" y="51.75" width="5.96" height="5.96"/><rect class="cls-11" x="154.44" y="59.23" width="5.96" height="5.96"/><rect class="cls-11" x="146.16" y="59.23" width="5.96" height="5.96"/><g class="cls-10"><polyline class="cls-23" points="162.27 87.17 162.27 69.75 158.75 69.75 158.75 87.17"/><polyline class="cls-23" points="157.45 87.17 157.45 69.75 153.93 69.75 153.93 87.17"/><polyline class="cls-23" points="152.63 87.17 152.63 69.75 149.1 69.75 149.1 87.17"/><polyline class="cls-23" points="147.81 87.17 147.81 69.75 144.28 69.75 144.28 87.17"/></g><path class="cls-24" d="M160.73,69.62a1.05,1.05,0,0,0,1.05,1.05h0a1.05,1.05,0,0,0,1-1.05V66.92a1.05,1.05,0,0,0-1-1h0a1.05,1.05,0,0,0-1.05,1Z"/><g class="cls-25"><path class="cls-2" d="M151.3,60.3a.42.42,0,0,1-.14.35l-3.59,3c-.09.08-.18,0-.2-.06h0a.42.42,0,0,1,.14-.35l3.59-3c.09-.08.18,0,.2.07Z"/><path class="cls-2" d="M150.84,61.35a.42.42,0,0,1-.14.35l-2.47,2.06c-.09.08-.18,0-.2-.07h0a.42.42,0,0,1,.14-.35l2.47-2.06c.09-.08.18,0,.2.07Z"/><path class="cls-2" d="M150.65,60.19a.42.42,0,0,1-.14.35L148,62.59c-.09.08-.18,0-.2-.07h0a.42.42,0,0,1,.14-.35l2.47-2.06c.09-.08.18,0,.2.07Z"/></g><g class="cls-25"><path class="cls-2" d="M159.42,60.3a.42.42,0,0,1-.14.35l-3.59,3c-.09.08-.18,0-.2-.06h0a.42.42,0,0,1,.14-.35l3.59-3c.09-.08.18,0,.2.07Z"/><path class="cls-2" d="M159,61.35a.42.42,0,0,1-.14.35l-2.47,2.06c-.09.08-.18,0-.2-.07h0a.42.42,0,0,1,.14-.35l2.47-2.06c.09-.08.18,0,.2.07Z"/><path class="cls-2" d="M158.77,60.19a.42.42,0,0,1-.14.35l-2.47,2.06c-.09.08-.18,0-.2-.07h0a.42.42,0,0,1,.14-.35l2.47-2.06c.09-.08.18,0,.2.07Z"/></g><g class="cls-25"><path class="cls-2" d="M151.07,53.21a.42.42,0,0,1-.14.35l-3.59,3c-.09.08-.18,0-.2-.07h0a.42.42,0,0,1,.14-.35l3.59-3c.09-.08.18,0,.2.07Z"/><path class="cls-2" d="M150.61,54.25a.42.42,0,0,1-.14.35L148,56.66c-.09.08-.18,0-.2-.07h0a.42.42,0,0,1,.14-.35l2.47-2.06c.09-.08.18,0,.2.07Z"/><path class="cls-2" d="M150.42,53.09a.42.42,0,0,1-.14.35l-2.47,2.06c-.09.08-.19,0-.2-.07h0a.42.42,0,0,1,.14-.35L150.22,53c.09-.08.18,0,.2.06Z"/></g><g class="cls-25"><path class="cls-2" d="M159.21,53.09a.42.42,0,0,1-.14.35l-3.59,3c-.09.08-.18,0-.2-.07h0a.42.42,0,0,1,.14-.35L159,53c.09-.08.18,0,.2.07Z"/><path class="cls-2" d="M158.74,54.14a.42.42,0,0,1-.14.35l-2.47,2.06c-.09.08-.18,0-.2-.07h0a.42.42,0,0,1,.14-.35l2.47-2.06c.09-.08.18,0,.2.07Z"/><path class="cls-2" d="M158.56,53a.42.42,0,0,1-.14.35l-2.47,2.06c-.09.08-.18,0-.2-.07h0a.42.42,0,0,1,.14-.35l2.47-2.06c.09-.08.18,0,.2.07Z"/></g><polygon class="cls-18" points="139.64 19.85 174.66 43.64 182.73 43.64 139.64 13.21 96.55 43.64 104.62 43.64 139.64 19.85"/><polygon class="cls-18" points="170.47 37.1 170.47 18.09 154.65 18.09 154.65 25.08 170.47 37.1"/><path class="cls-18" d="M171.86,17.83a.94.94,0,0,1-1,.79H154.31a.94.94,0,0,1-1-.79h0a.94.94,0,0,1,1-.79h16.51a.94.94,0,0,1,1,.79Z"/><circle class="cls-21" cx="124.19" cy="54.91" r="10.48"/><path class="cls-11" d="M124.19,48.16a6.75,6.75,0,0,0-6.75,6.75h13.5A6.75,6.75,0,0,0,124.19,48.16Z"/><rect class="cls-21" x="113.71" y="54.91" width="20.96" height="18.43"/><rect class="cls-11" x="117.79" y="57.68" width="5.35" height="5.35"/><rect class="cls-11" x="125.23" y="57.68" width="5.35" height="5.35"/><rect class="cls-11" x="117.79" y="64.39" width="5.35" height="5.35"/><rect class="cls-11" x="125.23" y="64.39" width="5.35" height="5.35"/><path class="cls-22" d="M124.19,45.88a9.07,9.07,0,0,0-9.12,9V71.75H133.3V54.91A9.07,9.07,0,0,0,124.19,45.88Z"/><g class="cls-25"><path class="cls-2" d="M122.43,65.56a.42.42,0,0,1-.14.35l-3.59,3c-.09.08-.18,0-.2-.07h0a.42.42,0,0,1,.14-.35l3.59-3c.09-.08.18,0,.2.07Z"/><path class="cls-2" d="M122,66.61a.42.42,0,0,1-.14.35L119.36,69c-.09.08-.19,0-.2-.07h0a.42.42,0,0,1,.14-.35l2.47-2.06c.09-.08.18,0,.2.07Z"/><path class="cls-2" d="M121.78,65.45a.42.42,0,0,1-.14.35l-2.47,2.06c-.09.08-.18,0-.2-.07h0a.42.42,0,0,1,.14-.35l2.47-2.06c.09-.08.18,0,.2.07Z"/></g><g class="cls-25"><path class="cls-2" d="M129.87,65.56a.42.42,0,0,1-.14.35l-3.59,3c-.09.08-.18,0-.2-.07h0a.42.42,0,0,1,.14-.35l3.59-3c.09-.08.18,0,.2.07Z"/><path class="cls-2" d="M129.41,66.61a.42.42,0,0,1-.14.35L126.8,69c-.09.08-.18,0-.2-.07h0a.42.42,0,0,1,.14-.35l2.47-2.06c.09-.08.18,0,.2.07Z"/><path class="cls-2" d="M129.22,65.45a.42.42,0,0,1-.14.35l-2.47,2.06c-.09.08-.18,0-.2-.07h0a.42.42,0,0,1,.14-.35L129,65.38c.09-.08.18,0,.2.07Z"/></g><g class="cls-25"><path class="cls-2" d="M122.43,58.72a.42.42,0,0,1-.14.35l-3.59,3c-.09.08-.18,0-.2-.07h0a.42.42,0,0,1,.14-.35l3.59-3c.09-.08.18,0,.2.07Z"/><path class="cls-2" d="M122,59.76a.42.42,0,0,1-.14.35l-2.47,2.06c-.09.08-.19,0-.2-.07h0a.42.42,0,0,1,.14-.35l2.47-2.06c.09-.08.18,0,.2.07Z"/><path class="cls-2" d="M121.78,58.61a.42.42,0,0,1-.14.35L119.17,61c-.09.08-.18,0-.2-.07h0a.42.42,0,0,1,.14-.35l2.47-2.06c.09-.08.18,0,.2.07Z"/></g><g class="cls-25"><path class="cls-2" d="M127.08,50.23c0,.11-.1.27-.27.36l-6.75,3.28c-.17.09-.34.06-.36-.05h0c0-.11.1-.28.27-.36l6.75-3.28c.18-.09.34-.06.36.05Z"/><path class="cls-2" d="M126.16,51.32c0,.11-.1.28-.27.36l-4.65,2.26c-.18.09-.34.06-.36-.05h0c0-.11.1-.28.27-.36l4.65-2.26c.18-.08.34-.06.36.05Z"/><path class="cls-2" d="M125.9,50.17c0,.11-.1.28-.27.36L121,52.79c-.18.09-.34.06-.36-.05h0c0-.11.1-.28.27-.36l4.65-2.26c.18-.08.34-.06.36.05Z"/></g><g class="cls-25"><path class="cls-2" d="M129.87,58.72a.42.42,0,0,1-.14.35l-3.59,3c-.09.08-.18,0-.2-.07h0a.42.42,0,0,1,.14-.35l3.59-3c.09-.08.18,0,.2.07Z"/><path class="cls-2" d="M129.41,59.76a.42.42,0,0,1-.14.35l-2.47,2.06c-.09.08-.18,0-.2-.07h0a.42.42,0,0,1,.14-.35l2.47-2.06c.09-.08.18,0,.2.07Z"/><path class="cls-2" d="M129.22,58.61a.42.42,0,0,1-.14.35L126.61,61c-.09.08-.18,0-.2-.07h0a.42.42,0,0,1,.14-.35L129,58.54c.09-.08.18,0,.2.07Z"/></g><path class="cls-3" d="M180.65,87.17a2,2,0,0,0-2.58-2.92,2,2,0,0,0,.06-.5A2,2,0,0,0,175,82h0a2,2,0,0,0-4-.23,2,2,0,0,0-2.78,2.57,2.5,2.5,0,0,0-1.75,2.38,2.45,2.45,0,0,0,0,.42Z"/><path class="cls-4" d="M169.21,87.17a2,2,0,0,1,2.58-2.92,2,2,0,0,1,3-2.21h0a2,2,0,0,1,4-.23,2,2,0,0,1,2.78,2.57,2.5,2.5,0,0,1,1.75,2.38,2.45,2.45,0,0,1,0,.42Z"/><path class="cls-5" d="M174.13,87.17a1.36,1.36,0,0,1,1.74-2,1.35,1.35,0,0,1,0-.33,1.36,1.36,0,0,1,2.09-1.15h0a1.36,1.36,0,0,1,2.72-.16,1.36,1.36,0,0,1,1.87,1.73,1.68,1.68,0,0,1,1.18,1.6,1.75,1.75,0,0,1,0,.28Z"/><path class="cls-3" d="M119.05,87.17a2.3,2.3,0,0,0-2.92-3.3,2.29,2.29,0,0,0-3.45-2.51h0a2.3,2.3,0,0,0-4.58-.27A2.3,2.3,0,0,0,105,84a2.83,2.83,0,0,0-2,2.7,2.87,2.87,0,0,0,0,.47Z"/><path class="cls-4" d="M109.49,86.46a2.3,2.3,0,0,1,2.92-3.3,2.3,2.3,0,0,1,3.45-2.51h0a2.3,2.3,0,0,1,4.58-.27,2.3,2.3,0,0,1,3.15,2.91,2.82,2.82,0,0,1,2,2.7,2.88,2.88,0,0,1,0,.47Z"/><path class="cls-5" d="M106.45,87.17a1.54,1.54,0,0,1,2-2.22,1.52,1.52,0,0,1,0-.38,1.54,1.54,0,0,1,2.37-1.31h0a1.54,1.54,0,0,1,3.08-.18,1.54,1.54,0,0,1,2.11,2,1.9,1.9,0,0,1,1.33,1.81,2,2,0,0,1,0,.32Z"/><path class="cls-3" d="M132.81,87.17a2.3,2.3,0,0,0-2.92-3.3,2.29,2.29,0,0,0-3.45-2.51h0a2.3,2.3,0,0,0-4.58-.27A2.3,2.3,0,0,0,118.72,84a2.83,2.83,0,0,0-2,2.7,2.87,2.87,0,0,0,0,.47Z"/><path class="cls-4" d="M123.25,87.17a2.3,2.3,0,0,1,2.92-3.3,2.29,2.29,0,0,1,3.45-2.51h0a2.3,2.3,0,0,1,4.58-.27A2.3,2.3,0,0,1,137.34,84a2.83,2.83,0,0,1,2,2.7,2.87,2.87,0,0,1,0,.47Z"/><path class="cls-5" d="M120.21,87.17a1.54,1.54,0,0,1,2-2.22,1.52,1.52,0,0,1,0-.38,1.54,1.54,0,0,1,2.37-1.31h0a1.54,1.54,0,0,1,3.08-.18,1.54,1.54,0,0,1,2.11,2A1.9,1.9,0,0,1,131,86.85a2,2,0,0,1,0,.32Z"/></g></g></g></svg>