<svg xmlns="http://www.w3.org/2000/svg" viewBox="0 0 161.14 85.34"><defs><style>.cls-1{fill:#14477b;}.cls-2{fill:#3c2415;}.cls-3{fill:#fff;}.cls-4{fill:none;stroke:#d1d3d4;stroke-miterlimit:10;stroke-width:0.53px;}.cls-5{fill:#6d6e71;}.cls-6{fill:#414042;}.cls-7{fill:#93c44d;}.cls-8{fill:#6fba52;}.cls-9{fill:#b7cf46;}.cls-10{fill:#2c1503;}.cls-11{fill:#781034;}.cls-12{fill:#2d1a0d;}.cls-13{fill:#a8947d;}.cls-14{opacity:0.1;}</style></defs><title>houses-a</title><g id="Layer_2" data-name="Layer 2"><g id="Capa_1" data-name="Capa 1"><rect class="cls-1" x="99.31" y="28.4" width="58.15" height="56.95"/><polygon class="cls-2" points="161.14 43.49 95.62 43.49 99.33 10.4 157.44 10.4 161.14 43.49"/><rect class="cls-2" x="104.24" y="0.92" width="10.5" height="10.81"/><path class="cls-2" d="M115.65.69a.69.69,0,0,1-.69.69H104a.69.69,0,0,1-.69-.69h0A.69.69,0,0,1,104,0h11a.69.69,0,0,1,.69.69Z"/><rect class="cls-3" x="131.87" y="51.06" width="21.05" height="34.28"/><polyline class="cls-4" points="133.25 85.34 133.25 52.43 151.56 52.43 151.56 85.34"/><rect class="cls-5" x="136.62" y="54.36" width="4.84" height="4.84"/><rect class="cls-5" x="143.35" y="54.36" width="4.84" height="4.84"/><rect class="cls-5" x="136.62" y="60.43" width="4.84" height="4.84"/><rect class="cls-5" x="143.35" y="60.43" width="4.84" height="4.84"/><polyline class="cls-4" points="135.1 85.34 135.1 68.98 137.96 68.98 137.96 85.34"/><polyline class="cls-4" points="139.01 85.34 139.01 68.98 141.88 68.98 141.88 85.34"/><polyline class="cls-4" points="142.93 85.34 142.93 68.98 145.79 68.98 145.79 85.34"/><polyline class="cls-4" points="146.84 85.34 146.84 68.98 149.7 68.98 149.7 85.34"/><path class="cls-6" d="M136.35,68.87a.85.85,0,0,1-.85.85h0a.85.85,0,0,1-.85-.85V66.68a.85.85,0,0,1,.85-.85h0a.85.85,0,0,1,.85.85Z"/><rect class="cls-3" x="104.87" y="54.16" width="21.97" height="19.31"/><rect class="cls-5" x="109.16" y="57.5" width="5.6" height="5.6"/><rect class="cls-5" x="116.96" y="57.5" width="5.6" height="5.6"/><rect class="cls-5" x="109.16" y="64.54" width="5.6" height="5.61"/><rect class="cls-5" x="116.96" y="64.54" width="5.6" height="5.61"/><rect class="cls-4" x="106.3" y="55.79" width="19.11" height="16.07"/><path class="cls-7" d="M122,85.34a3.24,3.24,0,0,0-4.13-4.66A3.24,3.24,0,0,0,113,77.15h0a3.24,3.24,0,0,0-6.46-.37,3.24,3.24,0,0,0-4.44,4.11,4,4,0,0,0-2.74,4.47Z"/><path class="cls-8" d="M108.51,85.34a3.24,3.24,0,0,1,4.12-4.66,3.24,3.24,0,0,1,4.87-3.54h0a3.24,3.24,0,0,1,6.46-.37,3.24,3.24,0,0,1,4.44,4.11,4,4,0,0,1,2.74,4.47Z"/><path class="cls-9" d="M104.21,85.34A2.18,2.18,0,0,1,107,82.21a2.15,2.15,0,0,1-.07-.54,2.18,2.18,0,0,1,3.34-1.84h0a2.18,2.18,0,0,1,4.34-.25,2.18,2.18,0,0,1,3,2.77,2.68,2.68,0,0,1,1.84,3Z"/><polygon class="cls-1" points="138.35 37.43 118.42 37.43 118.42 23.62 128.38 14.28 138.35 23.62 138.35 37.43"/><polygon class="cls-10" points="128.38 15.15 138.6 24.01 143.04 24.01 128.38 11.29 113.72 24.01 118.17 24.01 128.38 15.15"/><rect class="cls-3" x="121.28" y="23.5" width="14.2" height="12.48"/><rect class="cls-5" x="124.05" y="25.66" width="3.62" height="3.62"/><rect class="cls-5" x="129.09" y="25.66" width="3.62" height="3.62"/><rect class="cls-5" x="124.05" y="30.21" width="3.62" height="3.62"/><rect class="cls-5" x="129.09" y="30.21" width="3.62" height="3.62"/><rect class="cls-4" x="122.21" y="24.55" width="12.35" height="10.39"/><polygon class="cls-11" points="77.37 85.34 6.62 85.34 6.62 54.77 42 10.05 77.37 54.77 77.37 85.34"/><polygon class="cls-12" points="42 11.55 76.74 55.45 83.99 55.45 42 3.06 0 55.45 7.25 55.45 42 11.55"/><circle class="cls-3" cx="42" cy="33.87" r="7.86"/><path class="cls-13" d="M42,28.81a5.06,5.06,0,0,0-5.06,5.06H47.06A5.06,5.06,0,0,0,42,28.81Z"/><rect class="cls-3" x="34.13" y="33.87" width="15.72" height="13.82"/><rect class="cls-13" x="37.2" y="35.96" width="4.01" height="4.01"/><rect class="cls-13" x="42.78" y="35.96" width="4.01" height="4.01"/><rect class="cls-13" x="37.2" y="40.99" width="4.01" height="4.01"/><rect class="cls-13" x="42.78" y="40.99" width="4.01" height="4.01"/><path class="cls-4" d="M35.16,33.87a6.84,6.84,0,0,1,13.68,0V46.56H35.16Z"/><g class="cls-14"><path class="cls-3" d="M40.77,41.38a.49.49,0,0,1-.1.35l-2.67,3c-.07.08-.14,0-.16-.07h0a.48.48,0,0,1,.1-.35l2.67-3c.07-.08.14,0,.16.07Z"/><path class="cls-3" d="M40.43,42.43a.49.49,0,0,1-.1.35l-1.84,2c-.07.08-.14,0-.16-.07h0a.49.49,0,0,1,.1-.35l1.84-2c.07-.08.14,0,.16.07Z"/><path class="cls-3" d="M40.27,41.25a.49.49,0,0,1-.1.35l-1.84,2c-.07.08-.14,0-.16-.07h0a.49.49,0,0,1,.1-.35l1.84-2c.07-.08.14,0,.16.07Z"/></g><g class="cls-14"><path class="cls-3" d="M40.77,36.34a.49.49,0,0,1-.1.35l-2.67,3c-.07.08-.14,0-.16-.07h0a.49.49,0,0,1,.1-.35l2.67-3c.07-.08.14,0,.16.07Z"/><path class="cls-3" d="M40.43,37.4a.48.48,0,0,1-.1.35l-1.84,2c-.07.08-.14,0-.16-.07h0a.48.48,0,0,1,.1-.35l1.84-2c.07-.08.14,0,.16.07Z"/><path class="cls-3" d="M40.27,36.22a.49.49,0,0,1-.1.35l-1.84,2c-.07.08-.14,0-.16-.07h0a.48.48,0,0,1,.1-.35l1.84-2c.07-.08.14,0,.16.07Z"/></g><g class="cls-14"><path class="cls-3" d="M43.92,30.33a.58.58,0,0,1-.26.31L39.82,32.4c-.1,0-.15,0-.1-.14h0a.59.59,0,0,1,.26-.31l3.84-1.76c.1,0,.15,0,.1.14Z"/><path class="cls-3" d="M43.1,31.24a.59.59,0,0,1-.26.31L40.2,32.76c-.1,0-.15,0-.1-.14h0a.59.59,0,0,1,.26-.31L43,31.09c.1,0,.15,0,.1.14Z"/><path class="cls-3" d="M43.54,30a.6.6,0,0,1-.26.31l-2.64,1.21c-.1,0-.15,0-.1-.14h0a.59.59,0,0,1,.26-.31l2.64-1.21c.1,0,.15,0,.1.14Z"/></g><g class="cls-14"><path class="cls-3" d="M46.25,41.38a.49.49,0,0,1-.1.35l-2.67,3c-.07.08-.14,0-.16-.07h0a.48.48,0,0,1,.1-.35l2.67-3c.07-.08.14,0,.16.07Z"/><path class="cls-3" d="M45.92,42.43a.48.48,0,0,1-.1.35l-1.84,2c-.07.08-.14,0-.16-.07h0a.49.49,0,0,1,.1-.35l1.84-2c.07-.08.14,0,.16.07Z"/><path class="cls-3" d="M45.75,41.25a.49.49,0,0,1-.1.35l-1.84,2c-.07.08-.14,0-.16-.07h0a.49.49,0,0,1,.1-.35l1.84-2c.07-.08.14,0,.16.07Z"/></g><g class="cls-14"><path class="cls-3" d="M46.25,36.34a.49.49,0,0,1-.1.35l-2.67,3c-.07.08-.14,0-.16-.07h0a.48.48,0,0,1,.1-.35l2.67-3c.07-.08.14,0,.16.07Z"/><path class="cls-3" d="M45.92,37.4a.48.48,0,0,1-.1.35l-1.84,2c-.07.08-.14,0-.16-.07h0a.49.49,0,0,1,.1-.35l1.84-2c.07-.08.14,0,.16.07Z"/><path class="cls-3" d="M45.75,36.22a.49.49,0,0,1-.1.35l-1.84,2c-.07.08-.14,0-.16-.07h0a.48.48,0,0,1,.1-.35l1.84-2c.07-.08.14,0,.16.07Z"/></g><rect class="cls-3" x="32.69" y="59.48" width="9.31" height="23.84"/><polyline class="cls-4" points="33.3 83.31 33.3 60.43 41.39 60.43 41.39 83.31"/><rect class="cls-13" x="34.32" y="61.77" width="2.53" height="3.98"/><rect class="cls-13" x="37.84" y="61.77" width="2.53" height="3.98"/><rect class="cls-13" x="34.32" y="66.77" width="2.53" height="3.99"/><rect class="cls-13" x="37.84" y="66.77" width="2.53" height="3.99"/><rect class="cls-13" x="34.32" y="71.91" width="2.53" height="3.99"/><rect class="cls-13" x="37.84" y="71.91" width="2.53" height="3.99"/><rect class="cls-13" x="34.32" y="76.91" width="2.53" height="3.98"/><rect class="cls-13" x="37.84" y="76.91" width="2.53" height="3.98"/><rect class="cls-3" x="42" y="59.48" width="9.3" height="23.84"/><polyline class="cls-4" points="42.6 83.31 42.6 60.43 50.7 60.43 50.7 83.31"/><rect class="cls-13" x="43.62" y="61.77" width="2.53" height="3.98"/><rect class="cls-13" x="47.14" y="61.77" width="2.53" height="3.98"/><rect class="cls-13" x="43.62" y="66.77" width="2.53" height="3.99"/><rect class="cls-13" x="47.14" y="66.77" width="2.53" height="3.99"/><rect class="cls-13" x="43.62" y="71.91" width="2.53" height="3.99"/><rect class="cls-13" x="47.14" y="71.91" width="2.53" height="3.99"/><rect class="cls-13" x="43.62" y="76.91" width="2.53" height="3.98"/><rect class="cls-13" x="47.14" y="76.91" width="2.53" height="3.98"/><path class="cls-6" d="M43.09,74a.55.55,0,0,1-.49.59h0a.55.55,0,0,1-.49-.59V72.47a.55.55,0,0,1,.49-.59h0a.55.55,0,0,1,.49.59Z"/><path class="cls-6" d="M41.88,74a.55.55,0,0,1-.49.59h0A.55.55,0,0,1,40.9,74V72.47a.55.55,0,0,1,.49-.59h0a.55.55,0,0,1,.49.59Z"/><g class="cls-14"><path class="cls-3" d="M36.31,62.45a.34.34,0,0,1,0,.25l-1.45,2.41c0,.06-.09,0-.12,0h0a.35.35,0,0,1,0-.25l1.45-2.41c0-.06.09,0,.12,0Z"/><path class="cls-3" d="M36.23,63.22a.34.34,0,0,1,0,.25l-1,1.66c0,.06-.09.05-.12,0h0a.34.34,0,0,1,0-.26l1-1.66c0-.06.09-.05.12,0Z"/><path class="cls-3" d="M36,62.43a.34.34,0,0,1,0,.25l-1,1.66c0,.06-.09,0-.12,0h0a.35.35,0,0,1,0-.26l1-1.66c0-.06.09,0,.12,0Z"/></g><g class="cls-14"><path class="cls-3" d="M40,62.45a.34.34,0,0,1,0,.25l-1.44,2.41c0,.06-.09,0-.12,0h0a.34.34,0,0,1,0-.25l1.45-2.41c0-.06.09,0,.12,0Z"/><path class="cls-3" d="M39.9,63.22a.34.34,0,0,1,0,.25l-1,1.66c0,.06-.09.05-.12,0h0a.34.34,0,0,1,0-.26l1-1.66c0-.06.09-.05.12,0Z"/><path class="cls-3" d="M39.63,62.43a.34.34,0,0,1,0,.25l-1,1.66c0,.06-.09,0-.12,0h0a.35.35,0,0,1,0-.26l1-1.66c0-.06.09,0,.12,0Z"/></g><g class="cls-14"><path class="cls-3" d="M36.31,67.45a.35.35,0,0,1,0,.26l-1.45,2.41c0,.06-.09.05-.12,0h0a.35.35,0,0,1,0-.26l1.45-2.41c0-.06.09-.05.12,0Z"/><path class="cls-3" d="M36.23,68.22a.34.34,0,0,1,0,.26l-1,1.66c0,.06-.09,0-.12,0h0a.34.34,0,0,1,0-.26l1-1.66c0-.06.09-.05.12,0Z"/><path class="cls-3" d="M36,67.43a.35.35,0,0,1,0,.26l-1,1.66c0,.06-.09.05-.12,0h0a.35.35,0,0,1,0-.26l1-1.66c0-.06.09-.05.12,0Z"/></g><g class="cls-14"><path class="cls-3" d="M40,67.45a.34.34,0,0,1,0,.26l-1.44,2.41c0,.06-.09.05-.12,0h0a.34.34,0,0,1,0-.26l1.45-2.41c0-.06.09-.05.12,0Z"/><path class="cls-3" d="M39.9,68.22a.34.34,0,0,1,0,.26l-1,1.66c0,.06-.09,0-.12,0h0a.34.34,0,0,1,0-.26l1-1.66c0-.06.09-.05.12,0Z"/><path class="cls-3" d="M39.63,67.43a.34.34,0,0,1,0,.26l-1,1.66c0,.06-.09.05-.12,0h0a.35.35,0,0,1,0-.26l1-1.66c0-.06.09-.05.12,0Z"/></g><g class="cls-14"><path class="cls-3" d="M36.31,72.45a.35.35,0,0,1,0,.26l-1.45,2.41c0,.06-.09,0-.12,0h0a.35.35,0,0,1,0-.26l1.45-2.41c0-.06.09,0,.12,0Z"/><path class="cls-3" d="M36.23,73.22a.34.34,0,0,1,0,.25l-1,1.66c0,.06-.09.05-.12,0h0a.34.34,0,0,1,0-.25l1-1.66c0-.06.09-.05.12,0Z"/><path class="cls-3" d="M36,72.43a.35.35,0,0,1,0,.26l-1,1.66c0,.06-.09,0-.12,0h0a.34.34,0,0,1,0-.25l1-1.66c0-.06.09-.05.12,0Z"/></g><g class="cls-14"><path class="cls-3" d="M40,72.45a.34.34,0,0,1,0,.26l-1.44,2.41c0,.06-.09,0-.12,0h0a.34.34,0,0,1,0-.26l1.45-2.41c0-.06.09,0,.12,0Z"/><path class="cls-3" d="M39.9,73.22a.34.34,0,0,1,0,.25l-1,1.66c0,.06-.09.05-.12,0h0a.34.34,0,0,1,0-.25l1-1.66c0-.06.09-.05.12,0Z"/><path class="cls-3" d="M39.63,72.43a.34.34,0,0,1,0,.26l-1,1.66c0,.06-.09,0-.12,0h0a.35.35,0,0,1,0-.25l1-1.66c0-.06.09-.05.12,0Z"/></g><g class="cls-14"><path class="cls-3" d="M36.31,77.45a.35.35,0,0,1,0,.26l-1.45,2.41c0,.06-.09.05-.12,0h0a.34.34,0,0,1,0-.25l1.45-2.41c0-.06.09,0,.12,0Z"/><path class="cls-3" d="M36.23,78.22a.34.34,0,0,1,0,.26l-1,1.66c0,.06-.09,0-.12,0h0a.34.34,0,0,1,0-.26l1-1.66c0-.06.09-.05.12,0Z"/><path class="cls-3" d="M36,77.43a.35.35,0,0,1,0,.26l-1,1.66c0,.06-.09.05-.12,0h0a.35.35,0,0,1,0-.26l1-1.66c0-.06.09,0,.12,0Z"/></g><g class="cls-14"><path class="cls-3" d="M40,77.45a.34.34,0,0,1,0,.26l-1.44,2.41c0,.06-.09.05-.12,0h0a.34.34,0,0,1,0-.25l1.45-2.41c0-.06.09,0,.12,0Z"/><path class="cls-3" d="M39.9,78.22a.34.34,0,0,1,0,.26l-1,1.66c0,.06-.09,0-.12,0h0a.34.34,0,0,1,0-.26l1-1.66c0-.06.09-.05.12,0Z"/><path class="cls-3" d="M39.63,77.43a.35.35,0,0,1,0,.26l-1,1.66c0,.06-.09.05-.12,0h0a.35.35,0,0,1,0-.26l1-1.66c0-.06.09,0,.12,0Z"/></g><g class="cls-14"><path class="cls-3" d="M45.6,62.45a.34.34,0,0,1,0,.25l-1.44,2.41c0,.06-.09,0-.12,0h0a.34.34,0,0,1,0-.25l1.45-2.41c0-.06.09,0,.12,0Z"/><path class="cls-3" d="M45.52,63.22a.34.34,0,0,1,0,.25l-1,1.66c0,.06-.09.05-.12,0h0a.34.34,0,0,1,0-.26l1-1.66c0-.06.09-.05.12,0Z"/><path class="cls-3" d="M45.24,62.43a.34.34,0,0,1,0,.25l-1,1.66c0,.06-.09,0-.12,0h0a.35.35,0,0,1,0-.26l1-1.66c0-.06.09,0,.12,0Z"/></g><g class="cls-14"><path class="cls-3" d="M49.28,62.45a.34.34,0,0,1,0,.25l-1.45,2.41c0,.06-.09,0-.12,0h0a.34.34,0,0,1,0-.25l1.44-2.41c0-.06.09,0,.12,0Z"/><path class="cls-3" d="M49.19,63.22a.34.34,0,0,1,0,.25l-1,1.66c0,.06-.09.05-.12,0h0a.34.34,0,0,1,0-.26l1-1.66c0-.06.09-.05.12,0Z"/><path class="cls-3" d="M48.91,62.43a.34.34,0,0,1,0,.25l-1,1.66c0,.06-.09,0-.12,0h0a.34.34,0,0,1,0-.26l1-1.66c0-.06.09,0,.12,0Z"/></g><g class="cls-14"><path class="cls-3" d="M45.6,67.45a.34.34,0,0,1,0,.26l-1.44,2.41c0,.06-.09.05-.12,0h0a.34.34,0,0,1,0-.26l1.45-2.41c0-.06.09-.05.12,0Z"/><path class="cls-3" d="M45.52,68.22a.34.34,0,0,1,0,.26l-1,1.66c0,.06-.09,0-.12,0h0a.34.34,0,0,1,0-.26l1-1.66c0-.06.09-.05.12,0Z"/><path class="cls-3" d="M45.24,67.43a.34.34,0,0,1,0,.26l-1,1.66c0,.06-.09.05-.12,0h0a.35.35,0,0,1,0-.26l1-1.66c0-.06.09-.05.12,0Z"/></g><g class="cls-14"><path class="cls-3" d="M49.28,67.45a.35.35,0,0,1,0,.26l-1.45,2.41c0,.06-.09.05-.12,0h0a.34.34,0,0,1,0-.26l1.44-2.41c0-.06.09-.05.12,0Z"/><path class="cls-3" d="M49.19,68.22a.34.34,0,0,1,0,.26l-1,1.66c0,.06-.09,0-.12,0h0a.34.34,0,0,1,0-.26l1-1.66c0-.06.09-.05.12,0Z"/><path class="cls-3" d="M48.91,67.43a.34.34,0,0,1,0,.26l-1,1.66c0,.06-.09.05-.12,0h0a.34.34,0,0,1,0-.26l1-1.66c0-.06.09-.05.12,0Z"/></g><g class="cls-14"><path class="cls-3" d="M45.6,72.45a.34.34,0,0,1,0,.26l-1.44,2.41c0,.06-.09,0-.12,0h0a.34.34,0,0,1,0-.26l1.45-2.41c0-.06.09,0,.12,0Z"/><path class="cls-3" d="M45.52,73.22a.34.34,0,0,1,0,.25l-1,1.66c0,.06-.09.05-.12,0h0a.34.34,0,0,1,0-.25l1-1.66c0-.06.09-.05.12,0Z"/><path class="cls-3" d="M45.24,72.43a.34.34,0,0,1,0,.26l-1,1.66c0,.06-.09,0-.12,0h0a.35.35,0,0,1,0-.25l1-1.66c0-.06.09-.05.12,0Z"/></g><g class="cls-14"><path class="cls-3" d="M49.28,72.45a.35.35,0,0,1,0,.26l-1.45,2.41c0,.06-.09,0-.12,0h0a.34.34,0,0,1,0-.26l1.44-2.41c0-.06.09,0,.12,0Z"/><path class="cls-3" d="M49.19,73.22a.34.34,0,0,1,0,.25l-1,1.66c0,.06-.09.05-.12,0h0a.34.34,0,0,1,0-.25l1-1.66c0-.06.09-.05.12,0Z"/><path class="cls-3" d="M48.91,72.43a.34.34,0,0,1,0,.26l-1,1.66c0,.06-.09,0-.12,0h0a.34.34,0,0,1,0-.25l1-1.66c0-.06.09-.05.12,0Z"/></g><g class="cls-14"><path class="cls-3" d="M45.6,77.45a.34.34,0,0,1,0,.26l-1.44,2.41c0,.06-.09.05-.12,0h0a.34.34,0,0,1,0-.25l1.45-2.41c0-.06.09,0,.12,0Z"/><path class="cls-3" d="M45.52,78.22a.34.34,0,0,1,0,.26l-1,1.66c0,.06-.09,0-.12,0h0a.34.34,0,0,1,0-.26l1-1.66c0-.06.09-.05.12,0Z"/><path class="cls-3" d="M45.24,77.43a.35.35,0,0,1,0,.26l-1,1.66c0,.06-.09.05-.12,0h0a.35.35,0,0,1,0-.26l1-1.66c0-.06.09,0,.12,0Z"/></g><g class="cls-14"><path class="cls-3" d="M49.28,77.45a.35.35,0,0,1,0,.26l-1.45,2.41c0,.06-.09.05-.12,0h0a.34.34,0,0,1,0-.25l1.44-2.41c0-.06.09,0,.12,0Z"/><path class="cls-3" d="M49.19,78.22a.34.34,0,0,1,0,.26l-1,1.66c0,.06-.09,0-.12,0h0a.34.34,0,0,1,0-.26l1-1.66c0-.06.09-.05.12,0Z"/><path class="cls-3" d="M48.91,77.43a.35.35,0,0,1,0,.26l-1,1.66c0,.06-.09.05-.12,0h0a.34.34,0,0,1,0-.26l1-1.66c0-.06.09,0,.12,0Z"/></g><rect class="cls-3" x="11.68" y="55.31" width="17.55" height="15.43"/><rect class="cls-13" x="15.11" y="57.98" width="4.48" height="4.48"/><rect class="cls-13" x="21.34" y="57.98" width="4.48" height="4.48"/><rect class="cls-13" x="15.11" y="63.6" width="4.48" height="4.48"/><rect class="cls-13" x="21.34" y="63.6" width="4.48" height="4.48"/><rect class="cls-4" x="12.83" y="56.61" width="15.27" height="12.84"/><rect class="cls-3" x="54.76" y="55.31" width="17.55" height="15.43"/><rect class="cls-13" x="58.18" y="57.98" width="4.48" height="4.48"/><rect class="cls-13" x="64.41" y="57.98" width="4.48" height="4.48"/><rect class="cls-13" x="58.18" y="63.6" width="4.48" height="4.48"/><rect class="cls-13" x="64.41" y="63.6" width="4.48" height="4.48"/><rect class="cls-4" x="55.9" y="56.61" width="15.27" height="12.84"/><g class="cls-14"><path class="cls-3" d="M18.81,58.6a.49.49,0,0,1-.1.35L16,61.9c-.07.08-.14,0-.16-.07h0a.49.49,0,0,1,.1-.35l2.67-3c.07-.08.14,0,.16.07Z"/><path class="cls-3" d="M18.48,59.65a.49.49,0,0,1-.1.35l-1.84,2c-.07.08-.14,0-.16-.07h0a.49.49,0,0,1,.1-.35l1.84-2c.07-.08.14,0,.16.07Z"/><path class="cls-3" d="M18.31,58.47a.49.49,0,0,1-.1.35l-1.84,2c-.07.08-.14,0-.16-.07h0a.48.48,0,0,1,.1-.35l1.84-2c.07-.08.14,0,.16.07Z"/></g><g class="cls-14"><path class="cls-3" d="M25,58.6a.48.48,0,0,1-.1.35l-2.67,3c-.07.08-.14,0-.16-.07h0a.49.49,0,0,1,.1-.35l2.67-3c.07-.08.14,0,.16.07Z"/><path class="cls-3" d="M24.71,59.65a.49.49,0,0,1-.1.35l-1.84,2c-.07.08-.14,0-.16-.07h0a.49.49,0,0,1,.1-.35l1.84-2c.07-.08.14,0,.16.07Z"/><path class="cls-3" d="M24.54,58.47a.5.5,0,0,1-.1.35l-1.84,2c-.07.08-.14,0-.16-.07h0a.48.48,0,0,1,.1-.35l1.84-2c.07-.08.14,0,.16.07Z"/></g><g class="cls-14"><path class="cls-3" d="M18.81,64.22a.49.49,0,0,1-.1.35l-2.67,3c-.07.08-.14,0-.16-.07h0a.49.49,0,0,1,.1-.35l2.67-3c.07-.08.14,0,.16.07Z"/><path class="cls-3" d="M18.48,65.27a.48.48,0,0,1-.1.35l-1.84,2c-.07.08-.14,0-.16-.07h0a.49.49,0,0,1,.1-.35l1.84-2c.07-.08.14,0,.16.07Z"/><path class="cls-3" d="M18.31,64.09a.49.49,0,0,1-.1.35l-1.84,2c-.07.08-.14,0-.16-.07h0a.49.49,0,0,1,.1-.35l1.84-2c.07-.08.14,0,.16.07Z"/></g><g class="cls-14"><path class="cls-3" d="M25,64.22a.48.48,0,0,1-.1.35l-2.67,3c-.07.08-.14,0-.16-.07h0a.49.49,0,0,1,.1-.35l2.67-3c.07-.08.14,0,.16.07Z"/><path class="cls-3" d="M24.71,65.27a.49.49,0,0,1-.1.35l-1.84,2c-.07.08-.14,0-.16-.07h0a.49.49,0,0,1,.1-.35l1.84-2c.07-.08.14,0,.16.07Z"/><path class="cls-3" d="M24.54,64.09a.49.49,0,0,1-.1.35l-1.84,2c-.07.08-.14,0-.16-.07h0a.48.48,0,0,1,.1-.35l1.84-2c.07-.08.14,0,.16.07Z"/></g><g class="cls-14"><path class="cls-3" d="M61.88,58.6a.48.48,0,0,1-.1.35l-2.67,3c-.07.08-.14,0-.16-.07h0a.48.48,0,0,1,.1-.35l2.67-3c.07-.08.14,0,.16.07Z"/><path class="cls-3" d="M61.55,59.65a.48.48,0,0,1-.1.35l-1.84,2c-.07.08-.14,0-.16-.07h0a.48.48,0,0,1,.1-.35l1.84-2c.07-.08.14,0,.16.07Z"/><path class="cls-3" d="M61.38,58.47a.49.49,0,0,1-.1.35l-1.84,2c-.07.08-.14,0-.16-.07h0a.48.48,0,0,1,.1-.35l1.84-2c.07-.08.14,0,.16.07Z"/></g><g class="cls-14"><path class="cls-3" d="M68.11,58.6A.49.49,0,0,1,68,59l-2.67,3c-.07.08-.14,0-.16-.07h0a.48.48,0,0,1,.1-.35l2.67-3c.07-.08.14,0,.16.07Z"/><path class="cls-3" d="M67.78,59.65a.49.49,0,0,1-.1.35l-1.84,2c-.07.08-.14,0-.16-.07h0a.49.49,0,0,1,.1-.35l1.84-2c.07-.08.14,0,.16.07Z"/><path class="cls-3" d="M67.61,58.47a.49.49,0,0,1-.1.35l-1.84,2c-.07.08-.14,0-.16-.07h0a.48.48,0,0,1,.1-.35l1.84-2c.07-.08.14,0,.16.07Z"/></g><g class="cls-14"><path class="cls-3" d="M61.88,64.22a.48.48,0,0,1-.1.35l-2.67,3c-.07.08-.14,0-.16-.07h0a.48.48,0,0,1,.1-.35l2.67-3c.07-.08.14,0,.16.07Z"/><path class="cls-3" d="M61.55,65.27a.48.48,0,0,1-.1.35l-1.84,2c-.07.08-.14,0-.16-.07h0a.48.48,0,0,1,.1-.35l1.84-2c.07-.08.14,0,.16.07Z"/><path class="cls-3" d="M61.38,64.09a.48.48,0,0,1-.1.35l-1.84,2c-.07.08-.14,0-.16-.07h0a.48.48,0,0,1,.1-.35l1.84-2c.07-.08.14,0,.16.07Z"/></g><g class="cls-14"><path class="cls-3" d="M68.11,64.22a.49.49,0,0,1-.1.35l-2.67,3c-.07.08-.14,0-.16-.07h0a.48.48,0,0,1,.1-.35l2.67-3c.07-.08.14,0,.16.07Z"/><path class="cls-3" d="M67.78,65.27a.48.48,0,0,1-.1.35l-1.84,2c-.07.08-.14,0-.16-.07h0a.49.49,0,0,1,.1-.35l1.84-2c.07-.08.14,0,.16.07Z"/><path class="cls-3" d="M67.61,64.09a.49.49,0,0,1-.1.35l-1.84,2c-.07.08-.14,0-.16-.07h0a.49.49,0,0,1,.1-.35l1.84-2c.07-.08.14,0,.16.07Z"/></g><polygon class="cls-12" points="78.9 49.38 78.9 24.75 63.43 24.75 63.43 33.81 78.9 49.38"/><path class="cls-12" d="M80.25,24.41a1,1,0,0,1-1,1H63.1a1,1,0,0,1-1-1h0a1,1,0,0,1,1-1H79.23a1,1,0,0,1,1,1Z"/><path class="cls-7" d="M76,85.34a2.59,2.59,0,0,0-3.3-3.72,2.59,2.59,0,0,0-3.89-2.83h0a2.59,2.59,0,0,0-5.16-.3,2.59,2.59,0,0,0-3.55,3.29,3.19,3.19,0,0,0-2.23,3,3.27,3.27,0,0,0,0,.53Z"/><path class="cls-8" d="M65.24,85.34a2.59,2.59,0,0,1,3.3-3.72,2.59,2.59,0,0,1,3.89-2.83h0a2.59,2.59,0,0,1,5.16-.3,2.59,2.59,0,0,1,3.55,3.29,3.19,3.19,0,0,1,2.23,3,3.28,3.28,0,0,1,0,.53Z"/><path class="cls-9" d="M61.81,85.34a1.74,1.74,0,0,1,1.47-2.67,1.75,1.75,0,0,1,.74.17,1.71,1.71,0,0,1-.05-.43,1.74,1.74,0,0,1,2.67-1.47h0a1.74,1.74,0,0,1,3.47-.2,1.74,1.74,0,0,1,2.38,2.21A2.14,2.14,0,0,1,74,85.34Z"/><path class="cls-7" d="M22.82,85.34a2.59,2.59,0,0,0-3.29-3.72A2.64,2.64,0,0,0,19.6,81a2.59,2.59,0,0,0-4-2.19h0a2.59,2.59,0,0,0-5.16-.3,2.59,2.59,0,0,0-3.55,3.29,3.19,3.19,0,0,0-2.23,3,3.28,3.28,0,0,0,0,.53Z"/><path class="cls-8" d="M12,85.34a2.59,2.59,0,0,1,3.3-3.72,2.59,2.59,0,0,1,3.89-2.83h0a2.59,2.59,0,0,1,5.16-.3,2.59,2.59,0,0,1,3.55,3.29,3.19,3.19,0,0,1,2.23,3,3.28,3.28,0,0,1,0,.53Z"/><path class="cls-9" d="M8.61,85.34a1.74,1.74,0,0,1,1.47-2.67,1.75,1.75,0,0,1,.74.17,1.74,1.74,0,0,1,1.69-2.17,1.74,1.74,0,0,1,.93.27h0a1.74,1.74,0,0,1,3.47-.2,1.74,1.74,0,0,1,2.39,2.21,2.15,2.15,0,0,1,1.47,2.4Z"/></g></g></svg>