<?xml version="1.0" encoding="utf-8"?>
<!-- Generator: Adobe Illustrator 21.0.2, SVG Export Plug-In . SVG Version: 6.00 Build 0)  -->
<svg version="1.1" id="Layer_1" xmlns="http://www.w3.org/2000/svg" xmlns:xlink="http://www.w3.org/1999/xlink" x="0px" y="0px"
	 viewBox="0 0 68 91.8" style="enable-background:new 0 0 68 91.8;" xml:space="preserve">
<style type="text/css">
	.st0{fill:#FFFFFF;}
</style>
<title>icon-diploma</title>
<g id="Layer_2">
	<g id="Isolation_Mode">
		<path class="st0" d="M0,0v83.8h14.7v7.9l4.1-2.2l4.3-2.3l4.3,2.3l4.1,2.2v-7.9H68V0H0z M28.8,87.1l-5.7-3l-5.7,3v-9.2
			c1.7,1.1,3.9,1.1,5.7,0c1.7,1.1,3.9,1.1,5.7,0V87.1z M32.9,65.6L32.5,66c-0.6,0.6-0.7,1.5-0.4,2.3l0.2,0.5
			c0.5,1.1-0.1,2.4-1.2,2.8c-0.2,0.1-0.4,0.1-0.6,0.2l-0.5,0.1c-0.8,0.1-1.6,0.7-1.8,1.5l-0.2,0.5c-0.4,1.2-1.6,1.8-2.7,1.4
			c-0.2-0.1-0.4-0.1-0.5-0.3l-0.5-0.3c-0.7-0.5-1.6-0.5-2.4,0l-0.5,0.3c-1,0.7-2.4,0.4-3-0.6c-0.1-0.2-0.2-0.4-0.3-0.5l-0.2-0.5
			c-0.3-0.8-1-1.4-1.8-1.5l-0.6-0.1c-1.2-0.2-2-1.2-1.9-2.4c0-0.2,0.1-0.4,0.2-0.6l0.2-0.5c0.3-0.8,0.2-1.7-0.4-2.3l-0.4-0.4
			c-0.8-0.9-0.8-2.3,0.1-3.1c0.1-0.1,0.3-0.2,0.5-0.3l0.5-0.3c0.7-0.4,1.2-1.2,1.2-2v-0.5c-0.1-1.2,0.9-2.2,2.1-2.3
			c0.2,0,0.4,0,0.6,0.1l0.5,0.1c0.8,0.2,1.7-0.1,2.2-0.8l0.3-0.4c0.7-1,2.1-1.1,3.1-0.4c0.2,0.1,0.3,0.3,0.4,0.4l0.3,0.4
			c0.5,0.7,1.4,1,2.2,0.8l0.5-0.1c1.2-0.3,2.3,0.5,2.6,1.6c0,0.2,0.1,0.4,0.1,0.6v0.5c0,0.8,0.4,1.6,1.2,2l0.5,0.3
			c1.1,0.6,1.4,1.9,0.9,3C33.1,65.3,33,65.4,32.9,65.6L32.9,65.6z M54,40.5H14v-3.8h40V40.5z M54,30.5H14v-3.8h40V30.5z M54,20.5H14
			v-3.8h40V20.5z"/>
	</g>
</g>
</svg>
