<?xml version="1.0" encoding="utf-8"?>
<!-- Generator: Adobe Illustrator 21.0.2, SVG Export Plug-In . SVG Version: 6.00 Build 0)  -->
<svg version="1.1" id="Layer_1" xmlns="http://www.w3.org/2000/svg" xmlns:xlink="http://www.w3.org/1999/xlink" x="0px" y="0px"
	 viewBox="0 0 627.3 473.1" style="enable-background:new 0 0 627.3 473.1;" xml:space="preserve">
<style type="text/css">
	.st0{fill:#FFFFFF;}
</style>
<title>icon-family</title>
<g id="Layer_2">
	<g id="Layer_1-2">
		<path class="st0" d="M451.1,412.6c0-1.2,0.1-2.3,0.1-3.5c0.8-19.7,2.2-39.4,3.1-59.2c0.2-3.9,1-8.2,0.7-12
			c-0.2-3.2-2.2-3.9-5.1-4.6c-4.7-1-9.2-3.2-13.1-6.2c-1.4-1.1-2.8-2.4-3.6-4.1c-2-4.3,2.5-11.1,4-15c4.3-10.7,8.3-21.4,12.2-32.3
			c6.7-19.1,12.8-38.5,18.3-58c2.7-9.8,5.4-19.5,7.9-29.4c0.9-3.7,7.8-23-2.4-19.2c-1.1,0.4-2.2,1.2-3.1,1.9c-6.5,5.5-11,12.3-16,19
			c-9.4,12.4-18,25.4-28.2,37.2c-3.2,3.7-10.2,11.4-15.6,7.1c-1.1-0.9-1.9-2.2-2.5-3.5c-2.4-5.3-1.7-11.4-0.9-17
			c1-7.3,3.1-14.3,5.7-21.1c2.7-7.3,5.6-14.5,9.3-21.3c7.1-12.8,15.3-24.7,26-34.9c12-11.7,26.5-20.3,42.5-25.2
			c14.7-4.4,30.3-5.2,45.4-2.3c33.4,6.2,59.9,33.1,75.8,61.8c7.7,13.8,13.3,29,15.4,44.8c0.5,3.5,0.7,7.1,0.1,10.6
			c-0.6,3.2-2.3,7.9-5.6,9c-3.9,1.4-7.9-2.2-10.4-4.7c-10.9-10.9-19.4-23.8-28.4-36.3c-3.2-4.5-6.7-8.7-10.4-12.8
			c-3.1-3.5-6.7-8.7-10.6-11.3c-0.6-0.4-1.6-0.5-2.1,0c-2.8,2.6,4.3,16.6,5.3,19.6c5.3,15.9,9,32.2,13.8,48.2
			c7.7,25.9,16,52,27.6,76.4c2.5,5.3,1.3,9.9-3.5,13.3c-5.4,3.9-12.1,6.3-18.6,7.4c-2,0.4-4.1,0.3-5.2,2.1c-2,3.5-0.3,10.5-0.2,14.3
			c0.7,19.5,1.6,39,1.8,58.5c0.1,10.2,0.2,20.9-0.4,31.3c-0.5,8.7,0,16.9-4.7,24.8c-0.6,1.1-1.3,2.1-2.3,2.9
			c-1.7,1.3-3.9,1.3-5.5-0.1c-4.9-4.2-6.3-9.9-8-15.8c-2-7-3.8-13.9-5.5-21c-7.1-29.5-11.8-59.5-19.2-88.9c-0.4-1.8-1.5-2-2.9-2
			c-10.2,0-20.3,0-30.5,0c-1.7,0-2.8,0.5-3.3,2.4c-3.1,13.8-6.2,27.9-9.2,41.9c-3,14-5.2,28.1-8.3,42.1c-1.7,7.5-3.5,14.9-5.6,22.3
			c-1.7,6-3.2,13.8-8,18.2c-2,1.8-5,2.5-7.1,0.6c-1.4-1.3-2.2-3.2-2.8-5C451.4,447.5,450.6,429.8,451.1,412.6z"/>
		<path class="st0" d="M3.1,231c-1-1.1-1.7-2.5-2.1-3.9c-2.2-7.7-0.3-16.3,1.6-23.8c1.9-7.8,4.5-15.4,7.6-22.8
			c13.3-31,36.9-59.7,69.5-71.2c6.1-2.2,12.5-3.7,18.9-4.7c34.5-4.9,68.3,9.9,90.9,35.8c15.2,17.5,26.2,38.5,31.9,60.9
			c1.7,6.9,3,14,2.7,21.1c-0.2,4.6-2.2,10.8-8,10.1c-2.9-0.3-5.3-2.2-7.4-4.1c-13.5-12.1-22.5-28.9-33.5-43.1
			c-5-6.4-9.4-13.4-16.2-18.4c-2.2-1.6-4.4-2.1-6.4-1.2c-4.9,2-1.8,15.9-1.3,19.8c1.2,8.1,3.3,16.1,5.2,24
			c9.1,37.9,14,76.6,17.4,115.4c1.6,18.9,2.6,37.9,3.6,56.8c0.8,16.7,0.7,33.4-0.1,50.1c-0.4,7.9-1,15.8-2,23.7
			c-0.6,4.6-1.8,13.9-8,14.3c-1.9,0.1-3.7-1-5-2.4c-5.3-6.2-7.1-15.8-9.1-23.5c-2.8-11-4.9-22.1-7.3-33.2
			c-5.3-25.3-8.9-51.3-17.1-75.8c-2.4-7.1-5.2-14.1-8.5-20.9c-1.3-2.6-2.3-5.9-4.9-7.3c-3-1.6-6-0.5-8.2,1.9
			c-3.7,4-5.8,9.6-7.6,14.6c-13,35.8-16.6,74-25.6,110.9c-1.7,7.1-3.6,14.1-5.9,21c-1.5,4.6-3.1,14.9-9.7,14.7
			c-2.6-0.1-4.8-2-6.1-4.2c-1.3-2.3-1.7-4.9-2.1-7.4c-6.2-40.1-2.2-80.8,0.6-121c1.3-18.5,2.8-37.1,5-55.5
			c0.9-7.9,1.7-15.9,2.7-23.7c1.1-9,3.7-18,5.6-26.8c3.7-17.9,7.4-35.8,11.1-53.6c0.4-1.9,0.8-3.9,0.6-5.9c-0.4-3.2-2.9-5.9-6.1-6.1
			c-3.5-0.2-5.6,2.9-7.8,5.2c-5.6,6-10.5,12.4-15.3,19c-9.9,13.6-19,27.9-30.8,40c-2.4,2.4-5.8,4.4-9.1,3.5
			C5.2,232.9,4.1,232.1,3.1,231z"/>
		<path class="st0" d="M267.5,443.5c0.5-6.4,1.4-12.8,1.9-19.3c1-14.7,3.4-29.5,5.5-44c2-14,4.4-28.4,6.5-42.5
			c1.1-7.3,2.1-14.6,2.9-21.9c0.7-6.3,2.9-14.4,0.3-20.4c-1.4-3.2-4-5.8-7-7.8c-3.6-2.4-7.6-3.7-11.1-6.1c-2.5-1.7-5.2-3.2-7.8-4.8
			c-5.8-3.7-11.5-7.5-17-11.5c-7.3-5.4-20.4-13.6-22.4-23.3c-0.5-2.4,0.1-4.5,2-6c4.7-3.8,13.8,3.7,18.1,5.9
			c7.4,3.7,14.9,7.3,22.8,9.9c21.7,7.2,45,10,67.8,8.8c18.4-0.9,36.7-5.1,53.7-12.3c4.7-2,14.9-11.5,20.2-8c1.8,1.1,2.5,3.4,2.3,5.5
			c-0.2,2.1-1.2,4-2.3,5.8c-6.3,10.6-16,19.7-26.1,26.8c-5,3.5-10.2,6.5-15.7,9c-5,2.3-11.8,3.3-16.1,6.8c-4.7,3.8-2.9,9.1-2.3,14.3
			c0.5,4.8,1.2,9.6,2,14.3c1.8,11.2,4.3,22.7,6.6,34c3.8,18.3,6.8,36.8,8.8,55.3c1,9.5,1.7,19,2.1,28.5c0.3,9,1,18.5-2.4,27.1
			c-0.8,2-1.9,4-3.7,5c-3.4,1.9-6.4-1.5-8-4.2c-5.5-9.5-8-20.6-11.2-31.1c-2-6.8-4.1-13.6-6.3-20.3c-2-6.2-3.8-13.2-7-18.8
			c-4.2-7.3-12-9.9-17.5-2c-1.9,2.7-2.9,5.8-3.8,8.9c-3.5,11-6.6,22.1-10.1,33.1c-1.7,5.4-3.5,10.8-5.5,16.2
			c-1.8,4.8-3.3,10.9-6,15.3c-1.8,2.8-5.7,4.4-8.6,2.3c-2-1.5-3.1-3.9-3.8-6.3C267.1,458,266.9,450.8,267.5,443.5z"/>
		<path class="st0" d="M139.4,96.5c-27.2,1.8-48.8-23.3-48.6-48c0.2-25.9,21.7-50,51.4-48.5c25.4,1.4,46.2,21.6,46.2,48.6
			C188.4,74.7,166.8,98.4,139.4,96.5z"/>
		<path class="st0" d="M521.8,91.6c-22.1,17.3-55.9,11.3-70.8-12.5c-6.8-10.9-8.2-23.8-5.3-36.2C449,29,457.3,18.6,470.3,12
			c7.5-3.8,15.3-6.5,23.7-5.8c15.7,1.3,28.6,7.9,37.8,21.3c7,9.8,9.8,22,8,33.9C537.9,73.8,531.1,84.3,521.8,91.6z"/>
		<path class="st0" d="M315.5,251.6c-20.4,0.8-35.9-17.1-35.6-35.2c0.4-20.3,14.5-35.5,36-35.9c18.4-0.4,34.4,15.1,35.5,35.1
			C352.5,233.9,332.7,253.4,315.5,251.6z"/>
	</g>
</g>
</svg>
