<?xml version="1.0" encoding="utf-8"?>
<!-- Generator: Adobe Illustrator 21.0.2, SVG Export Plug-In . SVG Version: 6.00 Build 0)  -->
<svg version="1.1" id="Layer_1" xmlns="http://www.w3.org/2000/svg" xmlns:xlink="http://www.w3.org/1999/xlink" x="0px" y="0px"
	 viewBox="0 0 68.7 77.2" style="enable-background:new 0 0 68.7 77.2;" xml:space="preserve">
<style type="text/css">
	.st0{fill:#FFFFFF;}
</style>
<title>icon-church</title>
<g id="Layer_2">
	<g id="Layer_1-2">
		<path class="st0" d="M37.6,19.6l11.6,10.8v12.2l19.4,11.3L66,58.8l-4.6-1.7v20.1H38.1c-1.1,0-0.8-4.2-0.7-4.8
			c0.1-2.3,0.7-4.9-0.1-7.1c-0.8-2.6-3.6-3.6-5.3-0.9c-0.8,1.4-1,3.1-0.8,4.7c0,0.7,0.5,8.1-0.5,8.1H7.5V57.2l-4.8,1.5L0,54
			l19.4-11.4V31l11.9-11v-8.2l-5.6-0.7V6l5.5-0.7L31.7,0h5.4l0.4,5.2L43,5.9l0.3,5l-5.7,0.8L37.6,19.6z M43.4,46.2v-11l-9.4-9.6
			l-8.8,9v11.6l-11.6,6.8v18.3h11.7c0-2-0.1-3.8,0-5.6c0.2-5.5,4-9.3,9.1-9.2c4.9,0.1,8.5,3.8,8.7,9c0.1,1.9,0,3.8,0,5.6h11.9V53.1
			L43.4,46.2z"/>
		<path class="st0" d="M37.1,36.4v10.7h-5.3V36.4H37.1z"/>
	</g>
</g>
</svg>
